<?xml version="1.0" encoding="UTF-8"?>
<svg id="Layer_2" data-name="Layer 2" xmlns="http://www.w3.org/2000/svg" xmlns:xlink="http://www.w3.org/1999/xlink" viewBox="0 0 68.51 80.76">
  <defs>
    <style>
      .cls-1 {
        fill: url(#linear-gradient);
      }
    </style>
    <linearGradient id="linear-gradient" x1="0" y1="40.38" x2="68.51" y2="40.38" gradientUnits="userSpaceOnUse">
      <stop offset="0" stop-color="#c934d2"/>
      <stop offset="1" stop-color="#3c2c9f"/>
    </linearGradient>
  </defs>
  <g id="OBJECTS_1" data-name="OBJECTS 1">
    <g>
      <path class="cls-1" d="m33.47,80.76c-5.42-1.7-10.49-4.13-15.13-7.41-8.02-5.67-13.21-13.32-15.92-22.71C.94,45.52.21,40.26.06,34.94c-.14-4.99.01-9.99-.06-14.98-.07-4.83,3.43-8.82,8.64-9.08,3.82-.19,7.54-.95,11.13-2.35,3.41-1.33,6.49-3.2,9.25-5.61,1.32-1.15,2.55-2.42,4.3-2.93h1.89c1.73.5,2.94,1.73,4.24,2.87,4.66,4.09,10.09,6.56,16.2,7.52,1.68.27,3.39.39,5.08.6,4.58.57,7.73,4.01,7.74,8.64.01,5.88.12,11.78-.19,17.65-.41,7.77-2.05,15.29-5.8,22.22-3.3,6.09-7.9,10.97-13.67,14.77-3.88,2.56-8.05,4.52-12.42,6.07-.44.16-.9.28-1.35.41h-1.58ZM4.76,28.47c-.13,6.4.2,12.75,1.73,19.01,1.75,7.19,5.05,13.49,10.45,18.62,4.85,4.61,10.63,7.63,16.89,9.81.33.12.78.04,1.13-.08,3.62-1.28,7.1-2.87,10.36-4.92,6.11-3.84,10.84-8.92,13.92-15.49,2.28-4.86,3.44-10,4.07-15.3.82-6.92.61-13.85.42-20.79-.05-1.89-1.38-3.31-3.27-3.58-1.74-.25-3.5-.37-5.24-.62-5.38-.78-10.39-2.58-14.89-5.64-1.9-1.29-3.64-2.84-5.41-4.32-.5-.42-.86-.48-1.33,0-.42.43-.9.81-1.35,1.21-4.81,4.3-10.41,7.06-16.71,8.33-2.41.49-4.89.65-7.33,1.01-2.16.32-3.42,1.75-3.44,3.92-.03,2.94,0,5.89,0,8.83Zm49.62,11.95c-.11,11.14-9.13,20.16-20.15,20.08-11.33-.08-20.15-9.16-20.09-20.2.06-11.4,9.26-20.09,20.16-20.03,11.18.06,20.18,9.17,20.07,20.14Zm-4.75-.06c-.05-8.51-7.03-15.46-15.42-15.36-8.51.1-15.31,6.91-15.34,15.37-.03,8.44,6.94,15.41,15.39,15.4,8.48-.01,15.42-6.97,15.37-15.41Zm-21.35.73c-1.1-1.08-2.53-1.11-3.5-.11-.93.96-.87,2.39.16,3.45,1.31,1.33,2.62,2.65,3.96,3.96,1.15,1.12,2.47,1.12,3.61-.02,3.59-3.58,7.17-7.16,10.75-10.75,1.04-1.04,1.07-2.49.14-3.45-.97-.99-2.4-.95-3.5.13-2.07,2.05-4.13,4.12-6.19,6.18-.98.98-1.95,1.98-3.05,3.08-.85-.88-1.6-1.69-2.38-2.46Z"/>
      <path class="cls-1" d="m33.47,80.76c-5.42-1.7-10.49-4.13-15.13-7.41-8.02-5.67-13.21-13.32-15.92-22.71C.94,45.52.21,40.26.06,34.94c-.14-4.99.01-9.99-.06-14.98-.07-4.83,3.43-8.82,8.64-9.08,3.82-.19,7.54-.95,11.13-2.35,3.41-1.33,6.49-3.2,9.25-5.61,1.32-1.15,2.55-2.42,4.3-2.93h1.89c1.73.5,2.94,1.73,4.24,2.87,4.66,4.09,10.09,6.56,16.2,7.52,1.68.27,3.39.39,5.08.6,4.58.57,7.73,4.01,7.74,8.64.01,5.88.12,11.78-.19,17.65-.41,7.77-2.05,15.29-5.8,22.22-3.3,6.09-7.9,10.97-13.67,14.77-3.88,2.56-8.05,4.52-12.42,6.07-.44.16-.9.28-1.35.41h-1.58ZM4.76,28.47c-.13,6.4.2,12.75,1.73,19.01,1.75,7.19,5.05,13.49,10.45,18.62,4.85,4.61,10.63,7.63,16.89,9.81.33.12.78.04,1.13-.08,3.62-1.28,7.1-2.87,10.36-4.92,6.11-3.84,10.84-8.92,13.92-15.49,2.28-4.86,3.44-10,4.07-15.3.82-6.92.61-13.85.42-20.79-.05-1.89-1.38-3.31-3.27-3.58-1.74-.25-3.5-.37-5.24-.62-5.38-.78-10.39-2.58-14.89-5.64-1.9-1.29-3.64-2.84-5.41-4.32-.5-.42-.86-.48-1.33,0-.42.43-.9.81-1.35,1.21-4.81,4.3-10.41,7.06-16.71,8.33-2.41.49-4.89.65-7.33,1.01-2.16.32-3.42,1.75-3.44,3.92-.03,2.94,0,5.89,0,8.83Zm49.62,11.95c-.11,11.14-9.13,20.16-20.15,20.08-11.33-.08-20.15-9.16-20.09-20.2.06-11.4,9.26-20.09,20.16-20.03,11.18.06,20.18,9.17,20.07,20.14Zm-4.75-.06c-.05-8.51-7.03-15.46-15.42-15.36-8.51.1-15.31,6.91-15.34,15.37-.03,8.44,6.94,15.41,15.39,15.4,8.48-.01,15.42-6.97,15.37-15.41Zm-21.35.73c-1.1-1.08-2.53-1.11-3.5-.11-.93.96-.87,2.39.16,3.45,1.31,1.33,2.62,2.65,3.96,3.96,1.15,1.12,2.47,1.12,3.61-.02,3.59-3.58,7.17-7.16,10.75-10.75,1.04-1.04,1.07-2.49.14-3.45-.97-.99-2.4-.95-3.5.13-2.07,2.05-4.13,4.12-6.19,6.18-.98.98-1.95,1.98-3.05,3.08-.85-.88-1.6-1.69-2.38-2.46Z"/>
    </g>
  </g>
</svg>