<?xml version="1.0" encoding="UTF-8"?>
<svg id="Layer_2" data-name="Layer 2" xmlns="http://www.w3.org/2000/svg" xmlns:xlink="http://www.w3.org/1999/xlink" viewBox="0 0 87.21 83.04">
  <defs>
    <style>
      .cls-1 {
        fill: url(#linear-gradient);
      }
    </style>
    <linearGradient id="linear-gradient" x1="0" y1="41.52" x2="87.21" y2="41.52" gradientUnits="userSpaceOnUse">
      <stop offset="0" stop-color="#c934d2"/>
      <stop offset="1" stop-color="#3c2c9f"/>
    </linearGradient>
  </defs>
  <g id="OBJECTS_1" data-name="OBJECTS 1">
    <g>
      <path class="cls-1" d="m0,65.2c.44-.69,1.08-.9,1.88-.89,2.84.03,5.68.01,8.51.01.31,0,.61,0,1,0,.02-.37.05-.67.05-.97.11-15.95.22-31.9.33-47.85.01-1.84.4-2.22,2.27-2.22,11.1,0,22.19,0,33.29.02.7,0,1.01-.21,1.28-.86C51.8,4.77,59.47-.21,67.66,0c10.33.27,18.74,8.38,19.5,18.78.74,10.09-6.55,19.35-16.59,21.05-1.45.24-2.92.3-4.52.45v.9c0,10.19.01,20.38,0,30.57,0,5.55-3.68,10.04-9.08,11.07-1.13.22-2.31.21-3.47.21-14.05.01-28.1.01-42.15,0-5.64,0-10.14-3.75-11.19-9.27-.04-.19-.11-.37-.16-.56v-8Zm14.27-.88h1.14c9.59,0,19.18,0,28.77,0,.26,0,.51,0,.77,0,1.25.02,1.68.44,1.68,1.7,0,1.84,0,3.69,0,5.53,0,.57.01,1.14.11,1.69.79,4.34,4.58,7.27,8.93,6.92,4.24-.34,7.51-3.9,7.52-8.32.03-10.44,0-20.88.02-31.33,0-.62-.22-.79-.78-.93-4.89-1.24-8.83-3.9-11.7-8.07-.32-.47-.67-.58-1.19-.58-4.45.02-8.91,0-13.36,0-.26,0-.51.01-.77-.01-.85-.09-1.39-.67-1.37-1.45.02-.74.55-1.29,1.35-1.38.25-.03.51-.01.77-.01,3.86,0,7.72,0,11.58,0h1.03c-1.67-3.9-2.05-7.85-1.34-11.93H14.59c-.11,16.04-.22,32.04-.32,48.16ZM84.36,20.11c.02-9.47-7.66-17.21-17.1-17.24-9.56-.03-17.32,7.65-17.35,17.17-.03,9.54,7.69,17.28,17.24,17.28,9.52,0,17.19-7.68,17.21-17.21ZM2.85,67.16c0,1.71-.06,3.38.01,5.04.18,4.54,3.74,7.98,8.29,7.99,11.86.02,23.72,0,35.58,0,.2,0,.41-.04.67-.07-2.69-2.82-3.62-5.14-3.62-8.95,0-1.32,0-2.65,0-4H2.85Zm46.28-11.51c1.7,0,3.41.02,5.11-.01.85-.01,1.43-.61,1.44-1.37.02-.77-.54-1.35-1.38-1.44-.25-.03-.51-.01-.77-.01-4.23,0-8.46,0-12.69,0-1.73,0-3.46-.01-5.19,0-1.06.01-1.68.64-1.6,1.55.07.79.66,1.27,1.62,1.27,3.04,0,6.07,0,9.11,0,1.45,0,2.89,0,4.34,0Zm-13.53-15.17c-1.09,0-1.78.81-1.51,1.75.22.77.8,1.05,1.56,1.04,1.73,0,3.46,0,5.19,0,4.2,0,8.4,0,12.6,0,.26,0,.51,0,.77,0,.91-.06,1.49-.62,1.47-1.43-.02-.81-.61-1.36-1.53-1.36-3.06-.01-6.13,0-9.19,0-3.12,0-6.24,0-9.36,0Zm-4.72-10.85c-.02,2.4-2.05,4.37-4.52,4.35-2.46-.01-4.51-1.99-4.52-4.38,0-2.41,2.1-4.43,4.58-4.39,2.48.04,4.47,2.01,4.45,4.42Zm-4.51,1.51c.93,0,1.7-.68,1.71-1.53,0-.84-.76-1.54-1.69-1.55-.93,0-1.69.67-1.69,1.53,0,.85.74,1.54,1.67,1.55Zm4.51,10.73c0,2.41-2,4.38-4.47,4.4-2.48.02-4.58-2.01-4.56-4.42.02-2.39,2.07-4.35,4.54-4.35,2.48,0,4.49,1.96,4.5,4.37Zm-4.52,1.54c.94,0,1.7-.66,1.72-1.51.01-.83-.76-1.55-1.68-1.56-.93-.01-1.69.67-1.7,1.52-.01.86.72,1.54,1.66,1.55Zm4.52,10.78c-.02,2.41-2.04,4.36-4.51,4.35-2.46,0-4.5-1.98-4.52-4.36-.02-2.42,2.07-4.41,4.58-4.38,2.5.03,4.47,1.97,4.46,4.39Zm-4.49,1.5c.94,0,1.69-.7,1.68-1.54,0-.83-.81-1.54-1.71-1.54-.92,0-1.68.71-1.67,1.56,0,.85.75,1.52,1.7,1.52Zm37.62-25.94c1.12.55,1.73,1.1,1.57,2.42-.09.72.63,1.22,1.37,1.2.74-.01,1.28-.5,1.36-1.25.03-.25.04-.51.01-.76-.07-.59.12-.87.73-1.08,3.14-1.1,4.73-4.46,3.65-7.58-.81-2.35-2.94-3.89-5.49-4-2.11-.09-3.59-1.71-3.28-3.59.27-1.66,1.61-2.77,3.28-2.71,1.59.05,2.8,1.24,2.98,2.93.12,1.09.71,1.69,1.58,1.6.87-.1,1.38-.84,1.25-1.89-.28-2.32-1.44-4.08-3.62-4.96-.85-.35-1.16-.71-1.11-1.62.07-1.02-.68-1.64-1.6-1.5-.72.11-1.21.66-1.15,1.53.06.88-.19,1.31-1.05,1.69-2.02.89-3.16,2.55-3.37,4.76-.22,2.34.68,4.2,2.61,5.56,1.12.79,2.4.92,3.71,1.07,2.17.25,3.39,2.52,2.46,4.46-.61,1.28-1.95,1.97-3.38,1.74-1.44-.23-2.43-1.34-2.63-2.93-.13-1.09-.63-1.6-1.52-1.54-.84.06-1.3.66-1.28,1.68.05,1.93,1.11,3.92,2.91,4.79Z"/>
      <path class="cls-1" d="m0,65.2c.44-.69,1.08-.9,1.88-.89,2.84.03,5.68.01,8.51.01.31,0,.61,0,1,0,.02-.37.05-.67.05-.97.11-15.95.22-31.9.33-47.85.01-1.84.4-2.22,2.27-2.22,11.1,0,22.19,0,33.29.02.7,0,1.01-.21,1.28-.86C51.8,4.77,59.47-.21,67.66,0c10.33.27,18.74,8.38,19.5,18.78.74,10.09-6.55,19.35-16.59,21.05-1.45.24-2.92.3-4.52.45v.9c0,10.19.01,20.38,0,30.57,0,5.55-3.68,10.04-9.08,11.07-1.13.22-2.31.21-3.47.21-14.05.01-28.1.01-42.15,0-5.64,0-10.14-3.75-11.19-9.27-.04-.19-.11-.37-.16-.56v-8Zm14.27-.88h1.14c9.59,0,19.18,0,28.77,0,.26,0,.51,0,.77,0,1.25.02,1.68.44,1.68,1.7,0,1.84,0,3.69,0,5.53,0,.57.01,1.14.11,1.69.79,4.34,4.58,7.27,8.93,6.92,4.24-.34,7.51-3.9,7.52-8.32.03-10.44,0-20.88.02-31.33,0-.62-.22-.79-.78-.93-4.89-1.24-8.83-3.9-11.7-8.07-.32-.47-.67-.58-1.19-.58-4.45.02-8.91,0-13.36,0-.26,0-.51.01-.77-.01-.85-.09-1.39-.67-1.37-1.45.02-.74.55-1.29,1.35-1.38.25-.03.51-.01.77-.01,3.86,0,7.72,0,11.58,0h1.03c-1.67-3.9-2.05-7.85-1.34-11.93H14.59c-.11,16.04-.22,32.04-.32,48.16ZM84.36,20.11c.02-9.47-7.66-17.21-17.1-17.24-9.56-.03-17.32,7.65-17.35,17.17-.03,9.54,7.69,17.28,17.24,17.28,9.52,0,17.19-7.68,17.21-17.21ZM2.85,67.16c0,1.71-.06,3.38.01,5.04.18,4.54,3.74,7.98,8.29,7.99,11.86.02,23.72,0,35.58,0,.2,0,.41-.04.67-.07-2.69-2.82-3.62-5.14-3.62-8.95,0-1.32,0-2.65,0-4H2.85Zm46.28-11.51c1.7,0,3.41.02,5.11-.01.85-.01,1.43-.61,1.44-1.37.02-.77-.54-1.35-1.38-1.44-.25-.03-.51-.01-.77-.01-4.23,0-8.46,0-12.69,0-1.73,0-3.46-.01-5.19,0-1.06.01-1.68.64-1.6,1.55.07.79.66,1.27,1.62,1.27,3.04,0,6.07,0,9.11,0,1.45,0,2.89,0,4.34,0Zm-13.53-15.17c-1.09,0-1.78.81-1.51,1.75.22.77.8,1.05,1.56,1.04,1.73,0,3.46,0,5.19,0,4.2,0,8.4,0,12.6,0,.26,0,.51,0,.77,0,.91-.06,1.49-.62,1.47-1.43-.02-.81-.61-1.36-1.53-1.36-3.06-.01-6.13,0-9.19,0-3.12,0-6.24,0-9.36,0Zm-4.72-10.85c-.02,2.4-2.05,4.37-4.52,4.35-2.46-.01-4.51-1.99-4.52-4.38,0-2.41,2.1-4.43,4.58-4.39,2.48.04,4.47,2.01,4.45,4.42Zm-4.51,1.51c.93,0,1.7-.68,1.71-1.53,0-.84-.76-1.54-1.69-1.55-.93,0-1.69.67-1.69,1.53,0,.85.74,1.54,1.67,1.55Zm4.51,10.73c0,2.41-2,4.38-4.47,4.4-2.48.02-4.58-2.01-4.56-4.42.02-2.39,2.07-4.35,4.54-4.35,2.48,0,4.49,1.96,4.5,4.37Zm-4.52,1.54c.94,0,1.7-.66,1.72-1.51.01-.83-.76-1.55-1.68-1.56-.93-.01-1.69.67-1.7,1.52-.01.86.72,1.54,1.66,1.55Zm4.52,10.78c-.02,2.41-2.04,4.36-4.51,4.35-2.46,0-4.5-1.98-4.52-4.36-.02-2.42,2.07-4.41,4.58-4.38,2.5.03,4.47,1.97,4.46,4.39Zm-4.49,1.5c.94,0,1.69-.7,1.68-1.54,0-.83-.81-1.54-1.71-1.54-.92,0-1.68.71-1.67,1.56,0,.85.75,1.52,1.7,1.52Zm37.62-25.94c1.12.55,1.73,1.1,1.57,2.42-.09.72.63,1.22,1.37,1.2.74-.01,1.28-.5,1.36-1.25.03-.25.04-.51.01-.76-.07-.59.12-.87.73-1.08,3.14-1.1,4.73-4.46,3.65-7.58-.81-2.35-2.94-3.89-5.49-4-2.11-.09-3.59-1.71-3.28-3.59.27-1.66,1.61-2.77,3.28-2.71,1.59.05,2.8,1.24,2.98,2.93.12,1.09.71,1.69,1.58,1.6.87-.1,1.38-.84,1.25-1.89-.28-2.32-1.44-4.08-3.62-4.96-.85-.35-1.16-.71-1.11-1.62.07-1.02-.68-1.64-1.6-1.5-.72.11-1.21.66-1.15,1.53.06.88-.19,1.31-1.05,1.69-2.02.89-3.16,2.55-3.37,4.76-.22,2.34.68,4.2,2.61,5.56,1.12.79,2.4.92,3.71,1.07,2.17.25,3.39,2.52,2.46,4.46-.61,1.28-1.95,1.97-3.38,1.74-1.44-.23-2.43-1.34-2.63-2.93-.13-1.09-.63-1.6-1.52-1.54-.84.06-1.3.66-1.28,1.68.05,1.93,1.11,3.92,2.91,4.79Z"/>
    </g>
  </g>
</svg>