<?xml version="1.0" encoding="UTF-8"?>
<svg id="Layer_2" data-name="Layer 2" xmlns="http://www.w3.org/2000/svg" xmlns:xlink="http://www.w3.org/1999/xlink" viewBox="0 0 78.55 78.43">
  <defs>
    <style>
      .cls-1 {
        fill: url(#linear-gradient);
      }
    </style>
    <linearGradient id="linear-gradient" x1="0" y1="39.21" x2="78.55" y2="39.21" gradientUnits="userSpaceOnUse">
      <stop offset="0" stop-color="#c934d2"/>
      <stop offset="1" stop-color="#3c2c9f"/>
    </linearGradient>
  </defs>
  <g id="OBJECTS_1" data-name="OBJECTS 1">
    <g>
      <path class="cls-1" d="m78.55,41.55c-.2,1.49-.37,2.98-.61,4.46-2.55,15.59-15.01,28.55-30.51,31.57-11.34,2.21-21.82.1-31.28-6.63-1.02-.72-1.97-1.53-3.02-2.35-2.09,2.11-4.18,4.2-6.4,6.44-1.52-9.15-3.01-18.12-4.52-27.24,9.03,1.5,17.97,2.99,27.09,4.51-2.16,2.21-4.22,4.32-6.38,6.53,7.78,5.88,16.33,7.61,25.29,3.99,13.19-5.33,17.84-15.76,16.07-29.55,2.03.33,4.03.67,6.03.99,2.74.44,5.49.87,8.24,1.3v5.98Zm-61.55-14.54c3.15-5.62,7.78-9.52,13.86-11.68,9.4-3.34,19.36-.59,24.83,4.52-2.11,2.1-4.22,4.19-6.34,6.31,8.95,1.48,17.93,2.97,27.02,4.48-1.51-9.1-3-18.09-4.51-27.23-2.23,2.23-4.32,4.33-6.44,6.45C58.54,3.89,50.62.59,41.59.07c-9.05-.52-17.37,1.77-24.82,6.96C3.29,16.44-.88,31.39.15,42.81c4.68.77,9.38,1.55,14.29,2.35-1.18-6.46-.6-12.52,2.56-18.16Zm19.98-3.82v4.93c-.25.12-.46.21-.67.31-4.78,2.32-5.29,8.83-.92,11.86,1.21.84,2.58,1.17,4.04,1.24,1.21.06,2.11,1.02,2.15,2.19.04,1.13-.76,2.11-1.91,2.34-1.09.22-2.18-.45-2.56-1.58-.07-.21-.13-.42-.19-.62h-4.46c-.21,2.29,1.38,4.92,3.74,6.05.65.31.82.66.8,1.32-.05,1.34-.01,2.68-.01,4.04h4.6c0-1.42.03-2.79-.01-4.16-.02-.58.14-.88.7-1.15,2.9-1.36,4.41-4.49,3.74-7.64-.63-3.01-3.32-5.25-6.44-5.39-.33-.01-.67-.05-.98-.15-1.01-.31-1.68-1.31-1.6-2.34.08-1.04.91-1.94,1.93-2.09,1.09-.16,2.12.44,2.5,1.47.09.26.16.52.23.77h4.49c0-.27.03-.5,0-.72-.36-2.54-1.69-4.4-4.02-5.49-.41-.19-.56-.4-.55-.85.03-1.43.01-2.86.01-4.34h-4.61Z"/>
      <path class="cls-1" d="m78.55,41.55c-.2,1.49-.37,2.98-.61,4.46-2.55,15.59-15.01,28.55-30.51,31.57-11.34,2.21-21.82.1-31.28-6.63-1.02-.72-1.97-1.53-3.02-2.35-2.09,2.11-4.18,4.2-6.4,6.44-1.52-9.15-3.01-18.12-4.52-27.24,9.03,1.5,17.97,2.99,27.09,4.51-2.16,2.21-4.22,4.32-6.38,6.53,7.78,5.88,16.33,7.61,25.29,3.99,13.19-5.33,17.84-15.76,16.07-29.55,2.03.33,4.03.67,6.03.99,2.74.44,5.49.87,8.24,1.3v5.98Zm-61.55-14.54c3.15-5.62,7.78-9.52,13.86-11.68,9.4-3.34,19.36-.59,24.83,4.52-2.11,2.1-4.22,4.19-6.34,6.31,8.95,1.48,17.93,2.97,27.02,4.48-1.51-9.1-3-18.09-4.51-27.23-2.23,2.23-4.32,4.33-6.44,6.45C58.54,3.89,50.62.59,41.59.07c-9.05-.52-17.37,1.77-24.82,6.96C3.29,16.44-.88,31.39.15,42.81c4.68.77,9.38,1.55,14.29,2.35-1.18-6.46-.6-12.52,2.56-18.16Zm19.98-3.82v4.93c-.25.12-.46.21-.67.31-4.78,2.32-5.29,8.83-.92,11.86,1.21.84,2.58,1.17,4.04,1.24,1.21.06,2.11,1.02,2.15,2.19.04,1.13-.76,2.11-1.91,2.34-1.09.22-2.18-.45-2.56-1.58-.07-.21-.13-.42-.19-.62h-4.46c-.21,2.29,1.38,4.92,3.74,6.05.65.31.82.66.8,1.32-.05,1.34-.01,2.68-.01,4.04h4.6c0-1.42.03-2.79-.01-4.16-.02-.58.14-.88.7-1.15,2.9-1.36,4.41-4.49,3.74-7.64-.63-3.01-3.32-5.25-6.44-5.39-.33-.01-.67-.05-.98-.15-1.01-.31-1.68-1.31-1.6-2.34.08-1.04.91-1.94,1.93-2.09,1.09-.16,2.12.44,2.5,1.47.09.26.16.52.23.77h4.49c0-.27.03-.5,0-.72-.36-2.54-1.69-4.4-4.02-5.49-.41-.19-.56-.4-.55-.85.03-1.43.01-2.86.01-4.34h-4.61Z"/>
    </g>
  </g>
</svg>