<?xml version="1.0" encoding="UTF-8"?>
<svg id="Layer_2" data-name="Layer 2" xmlns="http://www.w3.org/2000/svg" xmlns:xlink="http://www.w3.org/1999/xlink" viewBox="0 0 248.94 74.22">
  <defs>
    <style>
      .cls-1 {
        fill: url(#linear-gradient);
      }

      .cls-2, .cls-3 {
        font-family: Poppins-Regular, Poppins;
      }

      .cls-3 {
        fill: #898989;
        font-size: 8.42px;
        letter-spacing: .25em;
      }

      .cls-4 {
        font-family: Poppins-ExtraBold, Poppins;
        font-weight: 700;
      }

      .cls-5 {
        fill: #424242;
        font-size: 25.21px;
      }
    </style>
    <linearGradient id="linear-gradient" x1="0" y1="37.11" x2="77.32" y2="37.11" gradientUnits="userSpaceOnUse">
      <stop offset="0" stop-color="#c934d2"/>
      <stop offset="1" stop-color="#3c2c9f"/>
    </linearGradient>
  </defs>
  <g id="OBJECTS_2" data-name="OBJECTS 2">
    <path class="cls-1" d="m0,70.62V20.78c1.11-2.86,2.23-3.63,5.32-3.63,20.89,0,41.77,0,62.66,0,3.13,0,4.86,1.72,4.87,4.84,0,3.5,0,7,0,10.49,0,.26-.02.53-.04.84h-.9c-8.18,0-16.36,0-24.53,0-4.36,0-7.58,3.12-7.64,7.45-.05,3.25-.07,6.49.03,9.74.03,1.02.3,2.11.75,3.03,1.39,2.85,3.8,4.19,6.94,4.2,8.15.02,16.31,0,24.46,0h.88c.03.19.06.29.06.39,0,3.88.04,7.75-.01,11.63-.04,2.72-1.88,4.44-4.67,4.44-21.16,0-42.32.01-63.49-.02-.87,0-1.79-.29-2.58-.67-1.18-.56-1.7-1.71-2.1-2.9Zm47.51-34.27c-2.94,0-4.75,1.81-4.76,4.76,0,2.94,0,5.89,0,8.83,0,2.95,1.79,4.76,4.75,4.76,8.36.01,16.71.01,25.07,0,2.96,0,4.75-1.81,4.75-4.76,0-2.92,0-5.84,0-8.76,0-3.06-1.78-4.84-4.82-4.84-4.13,0-8.26,0-12.38,0s-8.41,0-12.61,0Zm2.92,8.36c.1-.98.8-1.77,1.77-1.86,2.73-.27,4.21.04,3.97,3.53-.09,1.28-.94,2.13-2.23,2.18-.23,0-.45,0-.68,0-2.17,0-2.87-.7-2.85-2.88,0-.33-.03-.65,0-.98Zm12.32-35.2c-.81-2.86-2.97-4.08-5.84-3.3-9.18,2.5-18.37,5.01-27.55,7.52-.3.08-.6.19-.89.29l.03.09h35.51c-.43-1.59-.83-3.09-1.25-4.59ZM14.22,14.18c1.46-.07,2.99.11,4.38-.26,9.83-2.6,19.64-5.32,29.45-8,.26-.07.51-.17.82-.27-.49-.98-.94-1.9-1.4-2.82-1.37-2.74-3.71-3.54-6.46-2.18-8.74,4.33-17.47,8.66-26.2,12.99-.21.1-.42.22-.62.34l.04.21Z"/>
  </g>
  <g id="TEXTS">
    <g>
      <text class="cls-5" transform="translate(96.14 47.25)"><tspan class="cls-2" x="0" y="0">POCKET</tspan><tspan class="cls-4" x="95.45" y="0" xml:space="preserve"> PAY</tspan></text>
      <text class="cls-3" transform="translate(101.95 62.79)"><tspan x="0" y="0">YOUR PAYMENT ANCHOR</tspan></text>
    </g>
  </g>
</svg>